<svg id="Capa_1" data-name="Capa 1" xmlns="http://www.w3.org/2000/svg" viewBox="0 0 1080 1080">
  <defs>
    <style>
      .cls-1 {
        fill: #00f900;
      }

      .cls-2 {
        stroke: #00f900;
        stroke-miterlimit: 10;
        stroke-width: 0.25px;
      }
    </style>
  </defs>
  <title>titansvg</title>
  <path class="cls-1"
    d="M613.5,583.72v19.59c0,6.8,0,13.61.08,20.41,0,2.23-.69,2.92-2.93,2.9-13.16-.08-26.31-.1-39.46,0-2.7,0-3.47-.74-3.46-3.46.1-32.65,0-65.31.1-98,.06-28.12,20.91-49.91,49.09-50.34,31.06-.48,62.14-.08,93.21-.13,2.42,0,3,.87,3,3.2q-.09,72.62,0,145.25c0,2,0,3.45-2.81,3.42q-19.89-.17-39.79,0c-2.51,0-3.39-.68-3.33-3.26q.24-10.87,0-21.77a4,4,0,0,0-2-3.12c-16.71-5-33.48-9.88-50.24-14.75A7,7,0,0,0,613.5,583.72ZM666.75,552a5.49,5.49,0,0,0,.52-1.35c.05-9.18,0-18.36.12-27.54,0-2.23-1.37-2.21-2.93-2.21-14.84,0-29.69,0-44.53,0-3.73,0-5.92,2-6.29,5.73-.23,2.36,0,4.76-.16,7.13-.12,1.93.66,2.8,2.51,3.33C632.84,542,649.68,547,666.75,552Z" />
  <path class="cls-1"
    d="M765.47,520.73v4.11c0,32.55,0,65.09.09,97.64,0,3.28-.9,4.23-4.21,4.17-12.81-.21-25.63-.18-38.44-.08-2.55,0-3.28-.74-3.28-3.28q.11-72.46,0-144.93c0-2.89,1-3.6,3.75-3.59,30.51.06,61-.17,91.52,0,23.62.16,43.16,15.54,48.5,37.79a53.14,53.14,0,0,1,1.36,12.13c.12,32.78.06,65.55.17,98.33,0,2.87-.91,3.66-3.7,3.63-12.92-.14-25.85-.19-38.78-.06-2.94,0-3.57-1-3.56-3.71.09-29.72.06-59.43.07-89.14,0-1.59,0-3.18,0-4.76-.07-6.44-1.93-8.5-8.25-8.53-14.29-.08-28.58,0-42.87,0A23.82,23.82,0,0,0,765.47,520.73Z" />
  <path class="cls-1"
    d="M470.86,520.87H464c-13,0-26.09,0-39.13.11-2.64,0-3.5-.62-3.47-3.4.15-13.16.1-26.32,0-39.48,0-2.48.73-3.36,3.3-3.36q79.8.11,159.59.1c1.08,0,2.16.14,3.85.26-3.49,2.87-6.62,5.2-9.47,7.83a54.25,54.25,0,0,0-17.76,35.33c-.23,2.26-1.12,2.73-3.22,2.71-11.68-.11-23.37-.07-35.05-.08h-4.76v4.44c0,32.44,0,64.88.08,97.32,0,3-.59,4.1-3.91,4-13.15-.21-26.31-.17-39.47,0-2.95,0-3.85-.68-3.84-3.74.12-32.45.08-64.89.09-97.33Z" />
  <path class="cls-1"
    d="M360.48,520.85H357c-14.06,0-28.13.13-42.19,0-2.88,0-3.57.91-3.56,3.69.11,32.77.05,65.55.16,98.32,0,3-.67,3.83-3.77,3.78-13.26-.19-26.53-.14-39.8,0-2.75,0-3.41-.83-3.4-3.48.1-32.77,0-65.55.18-98.32,0-3.17-.9-4-4-4-14.06.14-28.12,0-42.18,0h-3.11c-.1-.9-.21-1.43-.21-2,0-13.61,0-27.22-.06-40.82,0-2.46.6-3.36,3.22-3.36q69.41.11,138.8,0c2.77,0,3.7.74,3.66,3.64-.15,12.92-.06,25.85-.07,38.78C360.66,518.25,360.56,519.35,360.48,520.85Z" />
  <path class="cls-1"
    d="M368.61,529.09c0-23.93.05-47.86-.07-71.78,0-3.13.88-4,4-4,13.15.16,26.31.11,39.46,0,2.73,0,3.72.71,3.71,3.64q-.11,72.29,0,144.57c0,2.69-.55,3.78-3.55,3.74q-20.07-.25-40.14,0c-3,0-3.54-1-3.53-3.7.08-24.16,0-48.31,0-72.46Z" />
  <path class="cls-1"
    d="M184.57,370.2q13.55-5.93,27.18-11.89c10-4.4,20-8.75,30-13.3,4.69-2.14,9.1-4.91,13.79-7.05,13.18-6,26.43-11.84,39.67-17.7q29.22-13,58.47-25.87c6.62-2.92,13.33-5.65,19.83-8.81,3.1-1.51,6.45-2.72,8.89-5.52,1.09-1.25,2.93-1.85,4.65-2.87.12.7.37,1.2.23,1.54-.83,2,0,3,1.92,3.71a18.4,18.4,0,0,1,3.38,2.31c-.23-2.72,1.17-3.82,3.51-4.69,2-.74,1.47-4.65-.35-5.92a9.37,9.37,0,0,1-3-3.11c-2.08-4-3.66-8.16-3.46-12.79a8.19,8.19,0,0,0-.66-1.84c-.95,3.47-3.54,2.76-5.53,3.5a68.51,68.51,0,0,0-7.05,3.68,13.14,13.14,0,0,0-2.93,1.7l7.44-2.53.56,1a7.94,7.94,0,0,1-1.72,1.79,27.67,27.67,0,0,1-4.53,2c-1.16.38-2.54.79-3-1.13-.07-.33-.62-.65-1-.79-1.3-.45-2.63-.81-3.68-1.12-.12.54,0,1.86-.56,2.2-2.17,1.4-4.49,2.11-6.48-.65,0,.27,0,.66.13.78,1.86,1.53.88,2.16-.74,2.88q-28.8,12.78-57.56,25.63-24.17,10.72-48.36,21.4-11,4.88-22,9.81c-2.39,1.07-4.74,2.66-7.51-1,.18,4.53-2.84,4.68-5.05,5.67q-20.58,9.19-41.2,18.29c-.56.25-1.08.61-1.81,1C178.85,357,181.65,363.48,184.57,370.2Z" />
  <path class="cls-1"
    d="M44.42,408.87l3.21,4.74.95.65c1.17-1.56,2.1-3.45,3.6-4.59a8.08,8.08,0,0,1,4.93-1.53c1.88.1,3.75,1.08,5.54,1.86a2,2,0,0,1,.74,1.69,37.21,37.21,0,0,1-1,4.35A6.25,6.25,0,0,1,54,420.11c-.68-.31-1.32-.68-2-1l-.46.44c1.24,2.21,2.43,4.47,3.79,6.61.21.33,1.3.41,1.8.19,8.36-3.65,16.67-7.44,25.05-11.05A69.94,69.94,0,0,1,89.67,413l.48.83a8.69,8.69,0,0,1-1.27,1.59c-1.11.88-2.37,1.57-3.46,2.47-1.58,1.29-3.11,2.18-4.91.16-5.29,7.3-13.51,10.84-19.92,16.89l4.15,7.65c1.15-.82,2.23-1.53,3.25-2.32,5.62-4.31,11.38-8.45,16.81-13,8.76-7.34,17.14-15.15,26-22.35a58.83,58.83,0,0,1,12.56-7.42c15.52-7.1,31.17-13.93,46.78-20.85,4.14-1.84,8.3-3.66,12.47-5.5l-8.54-19.81c-1.68.61-3.31,1.74-4.85,1.62-2.12-.16-3.22.16-4.47,2-.87,1.31-3,1.83-4.68,2.56q-27.5,12.23-55,24.39c-4.1,1.81-8.23,3.55-12.34,5.34-.7.31-1.36.74-2.24,1.21,1.87,4.29,3.68,8.45,5.5,12.61.73,1.65,1.61,3.25,2.2,5a6,6,0,0,1-.25,2.37c-.56-.49-1.37-.87-1.64-1.49-2.42-5.38-4.74-10.81-7.09-16.22-.19-.43-.4-.84-.71-1.47Z" />
  <path class="cls-1"
    d="M393.12,426.6a4.89,4.89,0,0,1,.33,1.26c0,2.36-.27,4.72-.09,7.06a4,4,0,0,0,1.59,2.82c1.93,1,2.59,2.56,3,4.48.84,3.81,0,7.27-1.67,10.7a7.34,7.34,0,0,0-.24,3.26c0,.68.45,1.34.54,2a3.74,3.74,0,0,1-3,3.9c-2,.18-2.6-1.19-2.82-2.79-.15-1.08-.1-2.18-.15-3.27a6.7,6.7,0,0,0-.16-2.07c-.65-1.74-1.76-3.35-2.14-5.13-.91-4.2-1.57-8.45,2.89-11.41a3.06,3.06,0,0,0,.93-2.24c.05-2.27-.15-4.53-.18-6.8a7.91,7.91,0,0,1,.46-1.86Zm-1.46,32c0,.54.6,1.44,1,1.51a2.29,2.29,0,0,0,1.76-.85c1.14-1.48,0-4.35-2.43-5.26A42.67,42.67,0,0,0,391.66,458.61Z" />
  <line class="cls-2" x1="392.59" y1="277.71" x2="392.59" y2="429.83" />
  <line class="cls-2" x1="384.12" y1="277.83" x2="392.5" y2="429.72" />
  <line class="cls-2" x1="395.91" y1="277.83" x2="392.42" y2="426.54" />
  <polygon class="cls-1" points="64.62 431.51 -7.07 479.04 -7.07 489.5 64.74 442.54 64.62 431.51" />
  <polygon class="cls-1" points="52 419.09 -7.07 452.24 -7.07 460.5 57.13 426.33 52 419.09" />
  <polygon class="cls-1" points="44.42 408.87 -7.07 431.51 -7.07 439.8 48.58 414.26 44.42 408.87" />
</svg>