<svg id="Capa_1" data-name="Capa 1" width="20" height="20" xmlns="http://www.w3.org/2000/svg" viewBox="0 0 1080 1080">
  <defs>
    <style>
      .cls-1 {
        fill: #fff;
      }
    </style>
  </defs>
  <title>ig</title>
  <path class="cls-1"
    d="M539.86,222.24c46.83,1.17,93.69,1.52,140.47,3.74,45.58,2.16,87.37,15.34,121.41,47.84,29.83,28.49,46.45,63.83,50.74,104.06,3.72,34.9,4.83,70.19,5.14,105.32.51,57.87-.31,115.75-1,173.62-.41,31.89-3.46,63.53-15.75,93.44C817.91,806,776,839.15,717.61,851.32a291.77,291.77,0,0,1-56.74,6.17q-120.81,1-241.65.16c-32.57-.19-64.73-4.51-94.79-18.26-52.21-23.87-82.66-65.06-94.86-120.49-6.84-31.07-7-62.76-7.16-94.29-.33-66.56.23-133.13.92-199.69.33-31.47,3.47-62.69,15.47-92.23,22.69-55.83,64.5-89.24,122.86-101.44,20.18-4.23,41.14-5.9,61.81-6.43,38.76-1,77.57-.28,116.37-.28C539.84,223.77,539.85,223,539.86,222.24ZM801.66,541l-1.2,0c0-26.49.62-53-.18-79.47s-1.23-53.1-5-79.2c-6.67-45.63-31.59-77.68-76.73-92-20.63-6.56-42-8.19-63.4-8.39-65.69-.59-131.4-1.42-197.09-.86-27.66.23-55.66,1.56-82.86,6.2-43.35,7.4-72.86,33-86.26,75.75-6.67,21.27-8.12,43.29-8.32,65.33-.59,64.64-1.19,129.28-.8,193.91.15,25.8,1.16,51.82,4.81,77.3,6.61,46.22,31.69,78.56,77.42,92.86,21.27,6.65,43.3,8,65.34,8.23,64.43.57,128.86,1.19,193.29.81a674.61,674.61,0,0,0,77.31-4.72c32.44-3.94,59.66-18.69,78.51-46.33,14.65-21.47,20.6-46,21.57-71.46C799.78,632.94,800.5,587,801.66,541Z" />
  <path class="cls-1"
    d="M703.16,541.38A163.17,163.17,0,1,1,540,378,162.91,162.91,0,0,1,703.16,541.38Zm-163.27-106A105.83,105.83,0,1,0,645.76,541.19,105.63,105.63,0,0,0,539.89,435.4Z" />
  <path class="cls-1" d="M747.77,371.37a38.12,38.12,0,1,1-38.48-38A38.06,38.06,0,0,1,747.77,371.37Z" />
</svg>