<svg id="Capa_8" data-name="Capa 8" xmlns="http://www.w3.org/2000/svg" viewBox="0 0 1080 1080"><defs><style>.cls-1{fill:#00f900;}</style></defs><title>LOGOTITANNUEVO</title><path class="cls-1" d="M640.65,585.14v26.74c0,9.29-.06,18.59.11,27.87.06,3.06-1,4-4,4-18-.12-35.92-.14-53.88,0-3.68,0-4.73-1-4.72-4.71.13-44.59,0-89.18.13-133.78.08-38.4,28.55-68.16,67-68.75,42.42-.65,84.85-.1,127.27-.17,3.31,0,4.17,1.19,4.17,4.36q-.12,99.18,0,198.35c0,2.75-.07,4.71-3.83,4.67q-27.17-.22-54.34,0c-3.42,0-4.62-.93-4.55-4.46q.35-14.85,0-29.72c0-1.49-1.48-3.89-2.75-4.27-22.82-6.86-45.72-13.49-68.6-20.14A10,10,0,0,0,640.65,585.14Zm72.71-43.3a7.57,7.57,0,0,0,.71-1.85c.06-12.54,0-25.07.16-37.6,0-3.05-1.86-3-4-3-20.27,0-40.54-.06-60.81,0-5.1,0-8.09,2.72-8.59,7.82-.32,3.22,0,6.5-.22,9.73-.16,2.64.9,3.82,3.43,4.56C667.06,528.16,690,535,713.36,541.84Z"/><path class="cls-1" d="M848.16,499.12v5.61c0,44.45,0,88.89.12,133.33,0,4.48-1.23,5.77-5.74,5.7-17.49-.29-35-.25-52.49-.11-3.48,0-4.49-1-4.48-4.48q.15-99,0-197.91c0-3.94,1.38-4.91,5.13-4.9,41.65.08,83.31-.22,125,.06,32.25.22,59,21.22,66.23,51.6a72.65,72.65,0,0,1,1.86,16.57c.17,44.75.08,89.5.23,134.26,0,3.93-1.24,5-5,5-17.66-.19-35.31-.25-53-.08-4,0-4.88-1.35-4.86-5.07.12-40.57.08-81.15.09-121.72,0-2.17,0-4.34,0-6.5-.1-8.8-2.64-11.6-11.27-11.65-19.51-.11-39,0-58.54,0C850.51,498.79,849.61,499,848.16,499.12Z"/><path class="cls-1" d="M445.87,499.31h-9.33c-17.81,0-35.62,0-53.43.15-3.6,0-4.77-.85-4.73-4.64.2-18,.13-35.94,0-53.9,0-3.39,1-4.6,4.5-4.6q109,.15,217.93.14c1.47,0,2.94.19,5.25.35-4.77,3.93-9,7.1-12.93,10.69-14.09,13-22.3,29.12-24.26,48.25-.31,3.09-1.52,3.73-4.39,3.7-16-.14-31.91-.09-47.86-.11h-6.5v6.06q0,66.45.1,132.89c0,4.1-.8,5.6-5.33,5.52-18-.29-35.93-.23-53.89,0-4,.05-5.26-.92-5.24-5.11.16-44.3.1-88.6.11-132.9Z"/><path class="cls-1" d="M295.15,499.28h-4.77c-19.2,0-38.4.18-57.6,0-3.93,0-4.88,1.24-4.87,5,.15,44.76.07,89.51.23,134.26,0,4-.93,5.22-5.15,5.16-18.12-.26-36.24-.19-54.35,0-3.76,0-4.66-1.13-4.65-4.75.14-44.75.06-89.5.25-134.25,0-4.34-1.23-5.5-5.46-5.46-19.2.18-38.4,0-57.6,0H96.94c-.14-1.22-.29-2-.29-2.69,0-18.58.06-37.16-.08-55.75,0-3.35.82-4.58,4.39-4.58q94.77.14,189.54,0c3.77,0,5,1,5,5-.21,17.65-.08,35.3-.1,53C295.39,495.74,295.25,497.24,295.15,499.28Z"/><path class="cls-1" d="M306.25,539.76c0-32.67.07-65.34-.09-98,0-4.27,1.2-5.52,5.5-5.46,17.95.22,35.92.15,53.88,0,3.72,0,5.08,1,5.07,5q-.15,98.7,0,197.42c0,3.67-.75,5.15-4.85,5.1q-27.41-.36-54.81,0c-4.11,0-4.84-1.39-4.83-5,.12-33,.07-66,.07-99Z"/></svg>